<svg width="20" height="20" viewBox="0 0 20 20" fill="none" xmlns="http://www.w3.org/2000/svg">
<circle cx="10" cy="10" r="10" fill="#661616"/>
<path fill-rule="evenodd" clip-rule="evenodd" d="M0.507507 6.84616L7.49594 10L0.507507 13.1539C0.178253 12.1624 0 11.102 0 10C0 8.89799 0.178253 7.83763 0.507507 6.84616ZM2.52455 3.35773C3.93109 1.77591 5.83211 0.643524 7.98514 0.203064L8.74797 7.83144L2.52455 3.35773ZM12.0149 0.203064L11.252 7.83144L17.4754 3.35771C16.0689 1.77589 14.1679 0.643524 12.0149 0.203064ZM19.4925 6.84616L12.5041 10L19.4925 13.1539C19.8217 12.1624 20 11.102 20 10C20 8.89799 19.8217 7.83763 19.4925 6.84616ZM17.4754 16.6423L11.252 12.1686L12.0149 19.7969C14.1679 19.3565 16.0689 18.2241 17.4754 16.6423ZM7.98514 19.7969L8.74797 12.1686L2.52458 16.6423C3.93112 18.2241 5.83212 19.3565 7.98514 19.7969Z" fill="#D9D9D9"/>
<circle cx="10" cy="10" r="7" fill="#661616"/>
</svg>
